<?xml version="1.0" encoding="UTF-8" standalone="no"?>
<svg
   xmlns:dc="http://purl.org/dc/elements/1.1/"
   xmlns:cc="http://creativecommons.org/ns#"
   xmlns:rdf="http://www.w3.org/1999/02/22-rdf-syntax-ns#"
   xmlns:svg="http://www.w3.org/2000/svg"
   xmlns="http://www.w3.org/2000/svg"
   viewBox="0 0 1114.1476 443.46521"
   height="443.46521"
   width="1114.1476"
   xml:space="preserve"
   id="svg2"
   version="1.1"><metadata
     id="metadata8"><rdf:RDF><cc:Work
         rdf:about=""><dc:format>image/svg+xml</dc:format><dc:type
           rdf:resource="http://purl.org/dc/dcmitype/StillImage" /></cc:Work></rdf:RDF></metadata><defs
     id="defs6"><clipPath
       id="clipPath14"
       clipPathUnits="userSpaceOnUse"><path
         id="path12"
         d="M 0,0 H 960 V 540 H 0 Z" /></clipPath><clipPath
       id="clipPath24"
       clipPathUnits="userSpaceOnUse"><path
         id="path22"
         d="M 0,1.206994e-5 H 959.76 V 540.00001 H 0 Z" /></clipPath><clipPath
       id="clipPath34"
       clipPathUnits="userSpaceOnUse"><path
         id="path32"
         d="M 0,0 H 960 V 540 H 0 Z" /></clipPath></defs><g
     clip-path="url(#clipPath14)"
     transform="matrix(1.3333333,0,0,-1.3333333,-117.18316,674.1712)"
     id="g10"><g
       id="g16" /><g
       id="g18"><g
         clip-path="url(#clipPath24)"
         id="g20"><path
           id="path26"
           style="fill:#ffffff;fill-opacity:1;fill-rule:nonzero;stroke:none"
           d="M 0,1.206994e-5 H 959.76 V 540.00001 H 0 Z" /></g></g><g
       id="g28"><g
         clip-path="url(#clipPath34)"
         id="g30"><path
           id="path36"
           style="fill:#ffffff;fill-opacity:1;fill-rule:nonzero;stroke:none"
           d="M 0,1.40816e-5 H 960 V 540.00001 H 0 Z" /><g
           transform="matrix(7.874016e-5,0,0,-7.874016e-5,420.0937,502.875)"
           id="g38"><path
             id="path40"
             style="fill:none;stroke:#000000;stroke-width:9525;stroke-linecap:butt;stroke-linejoin:round;stroke-miterlimit:10;stroke-dasharray:none;stroke-opacity:1"
             d="M 0,0 H 1521619 V 646331 H 0 Z" /></g><g
           transform="matrix(0.24,0,0,0.24,462.9399,-56.63999)"
           id="g42"><text
             id="text46"
             style="font-variant:normal;font-weight:normal;font-size:75px;font-family:Cochineal;-inkscape-font-specification:Cochineal-Roman;writing-mode:lr-tb;fill:#000000;fill-opacity:1;fill-rule:nonzero;stroke:#000000;stroke-width:2;stroke-linecap:butt;stroke-linejoin:miter;stroke-miterlimit:10;stroke-dasharray:none;stroke-opacity:1"
             transform="matrix(1,0,0,-0.98039213,0,2250.98)"><tspan
               id="tspan44"
               y="0"
               x="0 47.392502 80.760002 117.7275 142.17">Text </tspan></text>
</g><g
           transform="matrix(0.24,0,0,0.24,445.9999,-77.75999)"
           id="g48"><text
             id="text52"
             style="font-variant:normal;font-weight:normal;font-size:75px;font-family:Cochineal;-inkscape-font-specification:Cochineal-Roman;writing-mode:lr-tb;fill:#000000;fill-opacity:1;fill-rule:nonzero;stroke:#000000;stroke-width:2;stroke-linecap:butt;stroke-linejoin:miter;stroke-miterlimit:10;stroke-dasharray:none;stroke-opacity:1"
             transform="matrix(1,0,0,-0.98039213,0,2250.98)"><tspan
               id="tspan50"
               y="0"
               x="0 24.48 54.66 87.989998 123.945 184.35001 217.67999 258.81">fragment</tspan></text>
</g><g
           transform="matrix(7.874016e-5,0,0,-7.874016e-5,116.2734,426.1875)"
           id="g54"><path
             id="path56"
             style="fill:none;stroke:#000000;stroke-width:9525;stroke-linecap:butt;stroke-linejoin:round;stroke-miterlimit:10;stroke-dasharray:none;stroke-opacity:1"
             d="M 0,0 H 1521619 V 646331 H 0 Z" /></g><g
           transform="matrix(0.24,0,0,0.24,124.4296,-133.44)"
           id="g58"><text
             id="text62"
             style="font-variant:normal;font-weight:normal;font-size:75px;font-family:Cochineal;-inkscape-font-specification:Cochineal-Roman;writing-mode:lr-tb;fill:#000000;fill-opacity:1;fill-rule:nonzero;stroke:#000000;stroke-width:2;stroke-linecap:butt;stroke-linejoin:miter;stroke-miterlimit:10;stroke-dasharray:none;stroke-opacity:1"
             transform="matrix(1,0,0,-0.98039213,0,2250.98)"><tspan
               id="tspan60"
               y="0"
               x="0 54.165001 87.480003 126.57 165.66 204.75 225.09 246.48 270.94501 292.33499 325.125 353.79001 369.405 402.72 431.38501">Geopolitics as </tspan></text>
</g><g
           transform="matrix(0.24,0,0,0.24,133.9296,-154.32)"
           id="g64"><text
             id="text68"
             style="font-variant:normal;font-weight:normal;font-size:75px;font-family:Cochineal;-inkscape-font-specification:Cochineal-Roman;writing-mode:lr-tb;fill:#000000;fill-opacity:1;fill-rule:nonzero;stroke:#000000;stroke-width:2;stroke-linecap:butt;stroke-linejoin:miter;stroke-miterlimit:10;stroke-dasharray:none;stroke-opacity:1"
             transform="matrix(1,0,0,-0.98039213,0,2250.98)"><tspan
               id="tspan66"
               y="0"
               x="0 33.330002 48.959999 88.514999 121.845 155.175 194.73 249.96001 271.29001 312.42001">a headwind</tspan></text>
</g><g
           transform="matrix(7.874016e-5,0,0,-7.874016e-5,329.4609,425.7328)"
           id="g70"><path
             id="path72"
             style="fill:none;stroke:#000000;stroke-width:9525;stroke-linecap:butt;stroke-linejoin:round;stroke-miterlimit:10;stroke-dasharray:none;stroke-opacity:1"
             d="M 0,0 H 1521619 V 646331 H 0 Z" /></g><g
           transform="matrix(0.24,0,0,0.24,337.6172,-133.92)"
           id="g74"><text
             id="text78"
             style="font-variant:normal;font-weight:normal;font-size:75px;font-family:Cochineal;-inkscape-font-specification:Cochineal-Roman;writing-mode:lr-tb;fill:#000000;fill-opacity:1;fill-rule:nonzero;stroke:#000000;stroke-width:2;stroke-linecap:butt;stroke-linejoin:miter;stroke-miterlimit:10;stroke-dasharray:none;stroke-opacity:1"
             transform="matrix(1,0,0,-0.98039213,0,2250.98)"><tspan
               id="tspan76"
               y="0"
               x="0 54.165001 87.480003 126.57 165.66 204.75 225.09 246.48 270.94501 292.33499 325.125 353.79001 369.405 402.72 431.38501">Geopolitics as </tspan></text>
</g><g
           transform="matrix(0.24,0,0,0.24,352.6822,-154.8)"
           id="g80"><text
             id="text84"
             style="font-variant:normal;font-weight:normal;font-size:75px;font-family:Cochineal;-inkscape-font-specification:Cochineal-Roman;writing-mode:lr-tb;fill:#000000;fill-opacity:1;fill-rule:nonzero;stroke:#000000;stroke-width:2;stroke-linecap:butt;stroke-linejoin:miter;stroke-miterlimit:10;stroke-dasharray:none;stroke-opacity:1"
             transform="matrix(1,0,0,-0.98039213,0,2250.98)"><tspan
               id="tspan82"
               y="0"
               x="0 33.330002 48.959999 73.440002 106.77 128.10001 148.38 203.61 224.94 266.07001">a tailwind</tspan></text>
</g><g
           transform="matrix(7.874016e-5,0,0,-7.874016e-5,542.6483,426.1875)"
           id="g86"><path
             id="path88"
             style="fill:none;stroke:#000000;stroke-width:9525;stroke-linecap:butt;stroke-linejoin:round;stroke-miterlimit:10;stroke-dasharray:none;stroke-opacity:1"
             d="M 0,0 H 1889523 V 646331 H 0 Z" /></g><g
           transform="matrix(0.24,0,0,0.24,565.289,-133.44)"
           id="g90"><text
             id="text94"
             style="font-variant:normal;font-weight:normal;font-size:75px;font-family:Cochineal;-inkscape-font-specification:Cochineal-Roman;writing-mode:lr-tb;fill:#000000;fill-opacity:1;fill-rule:nonzero;stroke:#000000;stroke-width:2;stroke-linecap:butt;stroke-linejoin:miter;stroke-miterlimit:10;stroke-dasharray:none;stroke-opacity:1"
             transform="matrix(1,0,0,-0.98039213,0,2250.98)"><tspan
               id="tspan92"
               y="0"
               x="0 54.165001 87.480003 126.57 165.66 204.75 225.09 246.48 270.94501 292.33499 325.125 353.79001 369.405 402.72 431.38501">Geopolitics as </tspan></text>
</g><g
           transform="matrix(0.24,0,0,0.24,562.164,-154.32)"
           id="g96"><text
             id="text100"
             style="font-variant:normal;font-weight:normal;font-size:75px;font-family:Cochineal;-inkscape-font-specification:Cochineal-Roman;writing-mode:lr-tb;fill:#000000;fill-opacity:1;fill-rule:nonzero;stroke:#000000;stroke-width:2;stroke-linecap:butt;stroke-linejoin:miter;stroke-miterlimit:10;stroke-dasharray:none;stroke-opacity:1"
             transform="matrix(1,0,0,-0.98039213,0,2250.98)"><tspan
               id="tspan98"
               y="0"
               x="0 39.584999 72.945 105.78 127.14 155.77499 177.13499 216.19501 257.35501">decision </tspan></text>
</g><g
           transform="matrix(0.24,0,0,0.24,627.664,-154.32)"
           id="g102"><text
             id="text106"
             style="font-variant:normal;font-weight:normal;font-size:75px;font-family:Cochineal;-inkscape-font-specification:Cochineal-Roman;writing-mode:lr-tb;fill:#000000;fill-opacity:1;fill-rule:nonzero;stroke:#000000;stroke-width:2;stroke-linecap:butt;stroke-linejoin:miter;stroke-miterlimit:10;stroke-dasharray:none;stroke-opacity:1"
             transform="matrix(1,0,0,-0.98039213,0,2250.98)"><tspan
               id="tspan104"
               y="0"
               x="0 24.48 57.810001 90.614998 115.095 154.125">factor</tspan></text>
</g><g
           transform="matrix(-7.874016e-5,0,0,-7.874016e-5,480,451.9828)"
           id="g108"><path
             id="path110"
             style="fill:none;stroke:#000000;stroke-width:9525;stroke-linecap:butt;stroke-linejoin:miter;stroke-miterlimit:8;stroke-dasharray:none;stroke-opacity:1"
             d="M 0,0 3858600,327600" /></g><g
           transform="matrix(-7.874016e-5,0,0,-7.874016e-5,480,451.9828)"
           id="g112"><path
             id="path114"
             style="fill:none;stroke:#000000;stroke-width:9525;stroke-linecap:butt;stroke-linejoin:miter;stroke-miterlimit:8;stroke-dasharray:none;stroke-opacity:1"
             d="M 0,0 1151100,333300" /></g><g
           transform="matrix(7.874016e-5,0,0,-7.874016e-5,479.9999,451.9828)"
           id="g116"><path
             id="path118"
             style="fill:none;stroke:#000000;stroke-width:9525;stroke-linecap:butt;stroke-linejoin:miter;stroke-miterlimit:8;stroke-dasharray:none;stroke-opacity:1"
             d="M 0,0 1740300,327600" /></g><g
           transform="matrix(7.874016e-5,0,0,-7.874016e-5,89.05299,313.2047)"
           id="g120"><path
             id="path122"
             style="fill:none;stroke:#000000;stroke-width:9525;stroke-linecap:butt;stroke-linejoin:round;stroke-miterlimit:10;stroke-dasharray:none;stroke-opacity:1"
             d="M 0,0 H 2212854 V 1754286 H 0 Z" /></g><g
           transform="matrix(0.24,0,0,0.24,110.6732,-246.48)"
           id="g124"><text
             id="text128"
             style="font-variant:normal;font-weight:normal;font-size:75px;font-family:Cochineal;-inkscape-font-specification:Cochineal-Roman;writing-mode:lr-tb;fill:#000000;fill-opacity:1;fill-rule:nonzero;stroke:none"
             transform="matrix(1,0,0,-1,0,2250)"><tspan
               id="tspan126"
               y="0"
               x="0 39.060001 70.845001 102.105 125.04 163.05 194.83501 213.57001 229.155 256.215 279.14999 310.935 333.87 365.655 424.51501 456.29999 495.88501 518.82001 545.88">Factual statements </tspan></text>
</g><g
           transform="matrix(0.24,0,0,0.24,102.8582,-267.36)"
           id="g130"><text
             id="text134"
             style="font-variant:normal;font-weight:normal;font-size:75px;font-family:Cochineal;-inkscape-font-specification:Cochineal-Roman;writing-mode:lr-tb;fill:#000000;fill-opacity:1;fill-rule:nonzero;stroke:none"
             transform="matrix(1,0,0,-1,0,2250)"><tspan
               id="tspan132"
               y="0"
               x="0 31.77 68.790001 106.26 144.255 167.175 182.82001 214.065 252.06 283.82999 302.54999 321.26999 353.04001 392.60999 427.005 458.77499 485.82001 501.465 533.23499 572.80499 610.79999">about challenges and </tspan></text>
</g><g
           transform="matrix(0.24,0,0,0.24,99.67319,-289.44)"
           id="g136"><text
             id="text140"
             style="font-variant:normal;font-weight:normal;font-size:75px;font-family:Cochineal;-inkscape-font-specification:Cochineal-Roman;writing-mode:lr-tb;fill:#000000;fill-opacity:1;fill-rule:nonzero;stroke:none"
             transform="matrix(1,0,0,-1,0,2250)"><tspan
               id="tspan138"
               y="0"
               x="0 38.017502 69.809998 101.6025 139.62 193.7625 213.55499 253.14751 291.16501 318.23251 333.82501 365.0925 402.58499 442.17749 481.76999 513.5625 544.83002 567.77252 599.565 637.58252">headwinds connected </tspan></text>
</g><g
           transform="matrix(0.24,0,0,0.24,97.17318,-310.32)"
           id="g142"><text
             id="text146"
             style="font-variant:normal;font-weight:normal;font-size:75px;font-family:Cochineal;-inkscape-font-specification:Cochineal-Roman;writing-mode:lr-tb;fill:#000000;fill-opacity:1;fill-rule:nonzero;stroke:none"
             transform="matrix(1,0,0,-1,0,2250)"><tspan
               id="tspan144"
               y="0"
               x="0 22.92 60.389999 76.035004 110.43 142.2 179.67 217.66499 255.13499 273.85501 293.625 316.54501 336.315 367.56 394.60501 410.25 447.26999 485.26501 508.185 523.83002 561.82501 599.29498 631.065 658.10999">to geopolitics but does </tspan></text>
</g><g
           transform="matrix(0.24,0,0,0.24,103.5482,-332.4)"
           id="g148"><text
             id="text152"
             style="font-variant:normal;font-weight:normal;font-size:75px;font-family:Cochineal;-inkscape-font-specification:Cochineal-Roman;writing-mode:lr-tb;fill:#000000;fill-opacity:1;fill-rule:nonzero;stroke:none"
             transform="matrix(1,0,0,-1,0,2250)"><tspan
               id="tspan150"
               y="0"
               x="0 39.584999 77.07 92.654999 119.715 157.72501 189.50999 220.77 240.55499 263.48999 283.27499 314.535 330.12 388.98001 420.76501 452.54999 479.60999 517.62 546.255 578.03998 605.09998">no specific measures </tspan></text>
</g><g
           transform="matrix(0.24,0,0,0.24,120.2982,-354.48)"
           id="g154"><text
             id="text158"
             style="font-variant:normal;font-weight:normal;font-size:75px;font-family:Cochineal;-inkscape-font-specification:Cochineal-Roman;writing-mode:lr-tb;fill:#000000;fill-opacity:1;fill-rule:nonzero;stroke:none"
             transform="matrix(1,0,0,-1,0,2250)"><tspan
               id="tspan156"
               y="0"
               x="0 22.92 60.389999 76.035004 107.805 145.8 183.795 212.41499 244.185 271.23001 298.27499 313.92001 336.84 374.83499 406.60501 465.45001">to address them </tspan></text>
</g><g
           transform="matrix(7.874016e-5,0,0,-7.874016e-5,295.8717,313.2047)"
           id="g160"><path
             id="path162"
             style="fill:none;stroke:#000000;stroke-width:9525;stroke-linecap:butt;stroke-linejoin:round;stroke-miterlimit:10;stroke-dasharray:none;stroke-opacity:1"
             d="M 0,0 H 2374657 V 1754286 H 0 Z" /></g><g
           transform="matrix(0.24,0,0,0.24,323.8621,-246.48)"
           id="g164"><text
             id="text168"
             style="font-variant:normal;font-weight:normal;font-size:75px;font-family:Cochineal;-inkscape-font-specification:Cochineal-Roman;writing-mode:lr-tb;fill:#000000;fill-opacity:1;fill-rule:nonzero;stroke:none"
             transform="matrix(1,0,0,-1,0,2250)"><tspan
               id="tspan166"
               y="0"
               x="0">F</tspan></text>
</g><g
           transform="matrix(0.24,0,0,0.24,333.2371,-246.48)"
           id="g170"><text
             id="text174"
             style="font-variant:normal;font-weight:normal;font-size:75px;font-family:Cochineal;-inkscape-font-specification:Cochineal-Roman;writing-mode:lr-tb;fill:#000000;fill-opacity:1;fill-rule:nonzero;stroke:none"
             transform="matrix(1,0,0,-1,0,2250)"><tspan
               id="tspan172"
               y="0"
               x="0 31.77 63.014999 85.934998 123.93 155.7 174.42 190.065 217.11 240.03 271.79999 294.72 326.48999 385.33499 417.10501 456.67499 479.595 506.64001">actual statements </tspan></text>
</g><g
           transform="matrix(0.24,0,0,0.24,304.2371,-267.36)"
           id="g176"><text
             id="text180"
             style="font-variant:normal;font-weight:normal;font-size:75px;font-family:Cochineal;-inkscape-font-specification:Cochineal-Roman;writing-mode:lr-tb;fill:#000000;fill-opacity:1;fill-rule:nonzero;stroke:none"
             transform="matrix(1,0,0,-1,0,2250)"><tspan
               id="tspan178"
               y="0"
               x="0 31.77 68.790001 106.26 144.255 167.175 182.82001 220.28999 258.285 296.28 333.75 362.37 385.29001 423.285 462.85501 482.625 505.54501 525.315 557.08502 584.13 599.77502 631.54498 671.11499 709.10999">about opportunities and </tspan></text>
</g><g
           transform="matrix(0.24,0,0,0.24,309.2971,-289.44)"
           id="g182"><text
             id="text186"
             style="font-variant:normal;font-weight:normal;font-size:75px;font-family:Cochineal;-inkscape-font-specification:Cochineal-Roman;writing-mode:lr-tb;fill:#000000;fill-opacity:1;fill-rule:nonzero;stroke:none"
             transform="matrix(1,0,0,-1,0,2250)"><tspan
               id="tspan184"
               y="0"
               x="0 22.92 54.689999 74.459999 93.18 147.375 167.145 206.715 244.71001 271.755 287.39999 318.64499 356.11499 395.685 435.255 467.02499 498.26999 521.19 552.96002 590.95502 606.59998 629.52002 666.98999">tailwinds connected to </tspan></text>
</g><g
           transform="matrix(0.24,0,0,0.24,326.3621,-310.32)"
           id="g188"><text
             id="text192"
             style="font-variant:normal;font-weight:normal;font-size:75px;font-family:Cochineal;-inkscape-font-specification:Cochineal-Roman;writing-mode:lr-tb;fill:#000000;fill-opacity:1;fill-rule:nonzero;stroke:none"
             transform="matrix(1,0,0,-1,0,2250)"><tspan
               id="tspan190"
               y="0"
               x="0 34.372501 66.120003 103.6425 141.69 179.21249 197.985 217.8075 240.705 260.5275 291.75 318.8475 334.47 371.4675 409.51501 432.41251 448.035 487.6575 525.17999">geopolitics but no </tspan></text>
</g><g
           transform="matrix(0.24,0,0,0.24,318.7371,-332.4)"
           id="g194"><text
             id="text198"
             style="font-variant:normal;font-weight:normal;font-size:75px;font-family:Cochineal;-inkscape-font-specification:Cochineal-Roman;writing-mode:lr-tb;fill:#000000;fill-opacity:1;fill-rule:nonzero;stroke:none"
             transform="matrix(1,0,0,-1,0,2250)"><tspan
               id="tspan196"
               y="0"
               x="0 27.0825 65.114998 96.922501 128.205 148.0125 170.97 190.7775 222.06 237.6675 296.54999 328.35751 360.16501 387.2475 425.28 453.9375 485.745 512.82751 528.435 551.39252 588.90002">specific measures to </tspan></text>
</g><g
           transform="matrix(0.24,0,0,0.24,340.6121,-354.48)"
           id="g200"><text
             id="text204"
             style="font-variant:normal;font-weight:normal;font-size:75px;font-family:Cochineal;-inkscape-font-specification:Cochineal-Roman;writing-mode:lr-tb;fill:#000000;fill-opacity:1;fill-rule:nonzero;stroke:none"
             transform="matrix(1,0,0,-1,0,2250)"><tspan
               id="tspan202"
               y="0"
               x="0 38.017502 69.809998 98.452499 138.045 169.83749 196.905 223.9725 239.565 262.50751 300.52499 332.3175 391.185 406.32751">harness them. </tspan></text>
</g><g
           transform="matrix(7.874016e-5,0,0,-7.874016e-5,532.2185,313.2047)"
           id="g206"><path
             id="path208"
             style="fill:none;stroke:#000000;stroke-width:9525;stroke-linecap:butt;stroke-linejoin:round;stroke-miterlimit:10;stroke-dasharray:none;stroke-opacity:1"
             d="M 0,0 H 2154439 V 1200288 H 0 Z" /></g><g
           transform="matrix(0.24,0,0,0.24,539.9139,-246.48)"
           id="g210"><text
             id="text214"
             style="font-variant:normal;font-weight:normal;font-size:75px;font-family:Cochineal;-inkscape-font-specification:Cochineal-Roman;writing-mode:lr-tb;fill:#000000;fill-opacity:1;fill-rule:nonzero;stroke:none"
             transform="matrix(1,0,0,-1,0,2250)"><tspan
               id="tspan212"
               y="0"
               x="0">I</tspan></text>
</g><g
           transform="matrix(0.24,0,0,0.24,545.6639,-246.48)"
           id="g216"><text
             id="text220"
             style="font-variant:normal;font-weight:normal;font-size:75px;font-family:Cochineal;-inkscape-font-specification:Cochineal-Roman;writing-mode:lr-tb;fill:#000000;fill-opacity:1;fill-rule:nonzero;stroke:none"
             transform="matrix(1,0,0,-1,0,2250)"><tspan
               id="tspan218"
               y="0"
               x="0 39.584999 74.970001 112.455 150.99001 182.77499 209.83501 225.42 259.755 291.54001 329.02499 367.035 404.51999 423.255 443.04001 465.97501 485.76001 517.02002 544.08002 559.66498 591.45001 618.51001">nvokes geopolitics as </tspan></text>
</g><g
           transform="matrix(0.24,0,0,0.24,552.3539,-267.36)"
           id="g222"><text
             id="text226"
             style="font-variant:normal;font-weight:normal;font-size:75px;font-family:Cochineal;-inkscape-font-specification:Cochineal-Roman;writing-mode:lr-tb;fill:#000000;fill-opacity:1;fill-rule:nonzero;stroke:none"
             transform="matrix(1,0,0,-1,0,2250)"><tspan
               id="tspan224"
               y="0"
               x="0 31.77 47.415001 70.334999 102.105 133.35001 156.27 193.74001 222.36 238.005 257.77499 297.345 320.26501 357.73499 386.35501 445.20001 464.97 504.54001 538.935">a factor informing </tspan></text>
</g><g
           transform="matrix(0.24,0,0,0.24,572.3539,-289.44)"
           id="g228"><text
             id="text232"
             style="font-variant:normal;font-weight:normal;font-size:75px;font-family:Cochineal;-inkscape-font-specification:Cochineal-Roman;writing-mode:lr-tb;fill:#000000;fill-opacity:1;fill-rule:nonzero;stroke:none"
             transform="matrix(1,0,0,-1,0,2250)"><tspan
               id="tspan230"
               y="0"
               x="0 36.982498 75.014999 102.0975 121.905 161.5125 193.245 220.3275 247.41 263.01749 294.75 334.35751 372.39001">business and </tspan></text>
</g><g
           transform="matrix(0.24,0,0,0.24,542.9789,-310.32)"
           id="g234"><text
             id="text238"
             style="font-variant:normal;font-weight:normal;font-size:75px;font-family:Cochineal;-inkscape-font-specification:Cochineal-Roman;writing-mode:lr-tb;fill:#000000;fill-opacity:1;fill-rule:nonzero;stroke:none"
             transform="matrix(1,0,0,-1,0,2250)"><tspan
               id="tspan236"
               y="0"
               x="0 19.7925 59.384998 94.777496 126.57 153.6375 176.58 235.44749 267.23999 306.83249 329.77499 345.36749 383.38501 415.17749 446.44501 466.23749 493.30499 513.09747 550.59003 590.1825 617.25">investment decisions </tspan></text>
</g><g
           transform="matrix(-7.874016e-5,0,0,-7.874016e-5,176.1797,375.2953)"
           id="g240"><path
             id="path242"
             style="fill:none;stroke:#000000;stroke-width:9525;stroke-linecap:butt;stroke-linejoin:miter;stroke-miterlimit:8;stroke-dasharray:none;stroke-opacity:1"
             d="M 0,0 82,788550" /></g><g
           transform="matrix(-7.874016e-5,0,0,-7.874016e-5,389.3672,374.8406)"
           id="g244"><path
             id="path246"
             style="fill:none;stroke:#000000;stroke-width:9525;stroke-linecap:butt;stroke-linejoin:miter;stroke-miterlimit:8;stroke-dasharray:none;stroke-opacity:1"
             d="M 0,0 64,782776" /></g><g
           transform="matrix(-7.874016e-5,0,0,-7.874016e-5,617.039,375.2953)"
           id="g248"><path
             id="path250"
             style="fill:none;stroke:#000000;stroke-width:9525;stroke-linecap:butt;stroke-linejoin:miter;stroke-miterlimit:8;stroke-dasharray:none;stroke-opacity:1"
             d="M 0,0 1,788550" /></g><g
           transform="matrix(7.874016e-5,0,0,-7.874016e-5,765.8203,426.1875)"
           id="g252"><path
             id="path254"
             style="fill:none;stroke:#000000;stroke-width:9525;stroke-linecap:butt;stroke-linejoin:round;stroke-miterlimit:10;stroke-dasharray:none;stroke-opacity:1"
             d="M 0,0 H 1757063 V 646331 H 0 Z" /></g><g
           transform="matrix(0.24,0,0,0.24,778.1835,-133.44)"
           id="g256"><text
             id="text260"
             style="font-variant:normal;font-weight:normal;font-size:75px;font-family:Cochineal;-inkscape-font-specification:Cochineal-Roman;writing-mode:lr-tb;fill:#000000;fill-opacity:1;fill-rule:nonzero;stroke:#000000;stroke-width:2;stroke-linecap:butt;stroke-linejoin:miter;stroke-miterlimit:10;stroke-dasharray:none;stroke-opacity:1"
             transform="matrix(1,0,0,-0.98039213,0,2250.98)"><tspan
               id="tspan258"
               y="0"
               x="0 58.334999 97.394997 112.98 148.89 182.25 221.31 260.37 299.42999 319.73999 341.10001 365.60999 386.97 419.80499 453.16501 473.47501">No geopolitical </tspan></text>
</g><g
           transform="matrix(0.24,0,0,0.24,797.9935,-154.32)"
           id="g262"><text
             id="text266"
             style="font-variant:normal;font-weight:normal;font-size:75px;font-family:Cochineal;-inkscape-font-specification:Cochineal-Roman;writing-mode:lr-tb;fill:#000000;fill-opacity:1;fill-rule:nonzero;stroke:#000000;stroke-width:2;stroke-linecap:butt;stroke-linejoin:miter;stroke-miterlimit:10;stroke-dasharray:none;stroke-opacity:1"
             transform="matrix(1,0,0,-0.98039213,0,2250.98)"><tspan
               id="tspan264"
               y="0"
               x="0 28.6425 62.009998 103.1775 127.62 148.9875 209.42999 242.7975 283.965">sentiment</tspan></text>
</g><g
           transform="matrix(7.874016e-5,0,0,-7.874016e-5,749.4606,313.2047)"
           id="g268"><path
             id="path270"
             style="fill:none;stroke:#000000;stroke-width:9525;stroke-linecap:butt;stroke-linejoin:round;stroke-miterlimit:10;stroke-dasharray:none;stroke-opacity:1"
             d="M 0,0 H 2154300 V 929400 H 0 Z" /></g><g
           transform="matrix(0.24,0,0,0.24,768.3406,-246.48)"
           id="g272"><text
             id="text276"
             style="font-variant:normal;font-weight:normal;font-size:75px;font-family:Cochineal;-inkscape-font-specification:Cochineal-Roman;writing-mode:lr-tb;fill:#000000;fill-opacity:1;fill-rule:nonzero;stroke:none"
             transform="matrix(1,0,0,-1,0,2250)"><tspan
               id="tspan274"
               y="0"
               x="0">D</tspan></text>
</g><g
           transform="matrix(0.24,0,0,0.24,780.8406,-246.48)"
           id="g278"><text
             id="text282"
             style="font-variant:normal;font-weight:normal;font-size:75px;font-family:Cochineal;-inkscape-font-specification:Cochineal-Roman;writing-mode:lr-tb;fill:#000000;fill-opacity:1;fill-rule:nonzero;stroke:none"
             transform="matrix(1,0,0,-1,0,2250)"><tspan
               id="tspan280"
               y="0"
               x="0 37.5 69.300003 96.375 111.975 151.575 189.075 212.02499 227.625 258.89999 296.39999 336 358.95001 390.75 410.54999 450.14999 465.75 497.54999">oes not contain a </tspan></text>
</g><g
           transform="matrix(0.24,0,0,0.24,768.2755,-267.36)"
           id="g284"><text
             id="text288"
             style="font-variant:normal;font-weight:normal;font-size:75px;font-family:Cochineal;-inkscape-font-specification:Cochineal-Roman;writing-mode:lr-tb;fill:#000000;fill-opacity:1;fill-rule:nonzero;stroke:none"
             transform="matrix(1,0,0,-1,0,2250)"><tspan
               id="tspan286"
               y="0"
               x="0 27.0825 58.889999 98.497498 121.455 141.2625 200.145 231.9525 271.56 294.51749 310.125 333.08249 370.59 424.7475 456.55499 485.21249 523.245 550.32751">sentiment towards </tspan></text>
</g><g
           transform="matrix(0.24,0,0,0.24,796.0255,-289.44)"
           id="g290"><text
             id="text294"
             style="font-variant:normal;font-weight:normal;font-size:75px;font-family:Cochineal;-inkscape-font-specification:Cochineal-Roman;writing-mode:lr-tb;fill:#000000;fill-opacity:1;fill-rule:nonzero;stroke:none"
             transform="matrix(1,0,0,-1,0,2250)"><tspan
               id="tspan292"
               y="0"
               x="0 34.372501 66.120003 103.6425 141.69 179.21249 197.985 217.8075 240.705 260.5275 291.75">geopolitics</tspan></text>
</g><g
           transform="matrix(-7.874016e-5,0,0,-7.874016e-5,834.996,375.2953)"
           id="g296"><path
             id="path298"
             style="fill:none;stroke:#000000;stroke-width:9525;stroke-linecap:butt;stroke-linejoin:miter;stroke-miterlimit:8;stroke-dasharray:none;stroke-opacity:1"
             d="M 0,0 9000,788700" /></g><g
           transform="matrix(7.874016e-5,0,0,-7.874016e-5,479.9999,451.9828)"
           id="g300"><path
             id="path302"
             style="fill:none;stroke:#000000;stroke-width:9525;stroke-linecap:butt;stroke-linejoin:miter;stroke-miterlimit:8;stroke-dasharray:none;stroke-opacity:1"
             d="M 0,0 4508400,327600" /></g></g></g></g></svg>