<?xml version="1.0" encoding="UTF-8" standalone="no"?>
<svg
   xmlns:dc="http://purl.org/dc/elements/1.1/"
   xmlns:cc="http://creativecommons.org/ns#"
   xmlns:rdf="http://www.w3.org/1999/02/22-rdf-syntax-ns#"
   xmlns:svg="http://www.w3.org/2000/svg"
   xmlns="http://www.w3.org/2000/svg"
   viewBox="0 0 1182.4747 963.08612"
   height="963.08612"
   width="1182.4747"
   xml:space="preserve"
   id="svg2"
   version="1.1"><metadata
     id="metadata8"><rdf:RDF><cc:Work
         rdf:about=""><dc:format>image/svg+xml</dc:format><dc:type
           rdf:resource="http://purl.org/dc/dcmitype/StillImage" /></cc:Work></rdf:RDF></metadata><defs
     id="defs6"><clipPath
       id="clipPath14"
       clipPathUnits="userSpaceOnUse"><path
         id="path12"
         d="M 0,0 H 1920 V 1080 H 0 Z" /></clipPath><clipPath
       id="clipPath24"
       clipPathUnits="userSpaceOnUse"><path
         id="path22"
         d="M 0,0 H 1920 V 1080 H 0 Z" /></clipPath></defs><g
     clip-path="url(#clipPath14)"
     transform="matrix(1.3333333,0,0,-1.3333333,-676.10667,1300.4171)"
     id="g10"><g
       id="g16" /><g
       id="g18"><g
         clip-path="url(#clipPath24)"
         id="g20"><path
           id="path26"
           style="fill:#ffffff;fill-opacity:1;fill-rule:nonzero;stroke:none"
           d="M 0,1080 H 1920 V 0 H 0 Z" /><path
           id="path28"
           style="fill:#00a1ff;fill-opacity:0.89740002;fill-rule:nonzero;stroke:none"
           d="m 1107.119,807.0225 c 82.029,-82.0367 82.029,-215.0445 0,-297.0812 -82.029,-82.0368 -215.0246,-82.0368 -297.0537,0 -82.029,82.0367 -82.029,215.0445 0,297.0812 82.0291,82.0368 215.0247,82.0368 297.0537,0 z" /><path
           id="path30"
           style="fill:#0476e3;fill-opacity:0.8089;fill-rule:nonzero;stroke:none"
           d="m 1226.862,648.9365 c 82.029,-82.0367 82.029,-215.0445 0,-297.0812 -82.029,-82.0367 -215.025,-82.0367 -297.0536,0 -82.0291,82.0367 -82.0291,215.0445 0,297.0812 82.0286,82.0368 215.0246,82.0368 297.0536,0 z" /><path
           id="path32"
           style="fill:#3ec2fb;fill-opacity:0.87389999;fill-rule:nonzero;stroke:none"
           d="m 979.1167,648.9365 c 82.0293,-82.0367 82.0293,-215.0445 0,-297.0812 -82.0291,-82.0367 -215.0244,-82.0367 -297.0535,0 -82.029,82.0367 -82.029,215.0445 0,297.0812 82.0291,82.0368 215.0244,82.0368 297.0535,0 z" /><g
           transform="translate(882.428,553.2)"
           id="g34"><text
             id="text38"
             style="font-variant:normal;font-weight:normal;font-size:33px;font-family:Cochineal;-inkscape-font-specification:Cochineal-Roman;writing-mode:lr-tb;fill:#ffffff;fill-opacity:1;fill-rule:nonzero;stroke:none"
             transform="scale(1,-1)"><tspan
               id="tspan36"
               y="0"
               x="0 22.868999 36.827999 62.667 79.265999 93.093002 105.633 119.625 129.756 138.50101 152.328">Democratic </tspan></text>
</g><g
           transform="translate(923.414,512.2)"
           id="g40"><text
             id="text44"
             style="font-variant:normal;font-weight:normal;font-size:33px;font-family:Cochineal;-inkscape-font-specification:Cochineal-Roman;writing-mode:lr-tb;fill:#ffffff;fill-opacity:1;fill-rule:nonzero;stroke:none"
             transform="scale(1,-1)"><tspan
               id="tspan42"
               y="0"
               x="0 11.946 28.577999 42.57 56.396999">space</tspan></text>
</g><g
           transform="translate(587.0117,315.1144)"
           id="g46"><text
             id="text50"
             style="font-variant:normal;font-weight:normal;font-size:35px;font-family:Cochineal;-inkscape-font-specification:Cochineal-Roman;writing-mode:lr-tb;fill:#000000;fill-opacity:1;fill-rule:nonzero;stroke:none"
             transform="scale(1,-1)"><tspan
               id="tspan48"
               y="0"
               x="0 30.73 45.57 58.869999 75.355003 90.160004 100.905">Market </tspan></text>
</g><g
           transform="translate(536.9967,271.1144)"
           id="g52"><text
             id="text56"
             style="font-variant:normal;font-weight:normal;font-size:35px;font-family:Cochineal;-inkscape-font-specification:Cochineal-Roman;writing-mode:lr-tb;fill:#000000;fill-opacity:1;fill-rule:nonzero;stroke:none"
             transform="scale(1,-1)"><tspan
               id="tspan54"
               y="0"
               x="0 14.805 33.215 43.959999 58.799999 77.209999 93.275002 102.095 116.9 144.30499 159.11 177.52 188.265">entanglements</tspan></text>
</g><g
           transform="translate(1224.966,315.1144)"
           id="g58"><text
             id="text62"
             style="font-variant:normal;font-weight:normal;font-size:35px;font-family:Cochineal;-inkscape-font-specification:Cochineal-Roman;writing-mode:lr-tb;fill:#000000;fill-opacity:1;fill-rule:nonzero;stroke:none"
             transform="scale(1,-1)"><tspan
               id="tspan60"
               y="0"
               x="0 20.055 28.875 43.68 58.345001 69.089996 86.695 99.995003 114.835 123.655">Electoral </tspan></text>
</g><g
           transform="translate(1224.948,271.1144)"
           id="g64"><text
             id="text68"
             style="font-variant:normal;font-weight:normal;font-size:35px;font-family:Cochineal;-inkscape-font-specification:Cochineal-Roman;writing-mode:lr-tb;fill:#000000;fill-opacity:1;fill-rule:nonzero;stroke:none"
             transform="scale(1,-1)"><tspan
               id="tspan66"
               y="0"
               x="0 17.780001 32.584999 59.990002 74.830002 93.239998 111.02">demands</tspan></text>
</g><g
           transform="translate(927.8445,929.3409)"
           id="g70"><text
             id="text74"
             style="font-variant:normal;font-weight:normal;font-size:35px;font-family:Cochineal;-inkscape-font-specification:Cochineal-Roman;writing-mode:lr-tb;fill:#000000;fill-opacity:1;fill-rule:nonzero;stroke:none"
             transform="scale(1,-1)"><tspan
               id="tspan72"
               y="0"
               x="0 18.059999 32.900002 43.645 61.494999">Path </tspan></text>
</g><g
           transform="translate(865.667,885.3409)"
           id="g76"><text
             id="text80"
             style="font-variant:normal;font-weight:normal;font-size:35px;font-family:Cochineal;-inkscape-font-specification:Cochineal-Roman;writing-mode:lr-tb;fill:#000000;fill-opacity:1;fill-rule:nonzero;stroke:none"
             transform="scale(1,-1)"><tspan
               id="tspan78"
               y="0"
               x="0 17.780001 32.584999 50.224998 65.029999 83.440002 101.22 116.025 134.435 149.10001 158.375 173.17999">dependencies</tspan></text>
</g></g></g></g></svg>